<svg width="20" height="26" viewBox="0 0 20 26" fill="none" xmlns="http://www.w3.org/2000/svg">
<path d="M10 0.5C12.7614 0.5 15 2.73857 15 5.5V8H18.125C19.1605 8 20 8.83946 20 9.875V23.625C20 24.6605 19.1605 25.5 18.125 25.5H1.875C0.839463 25.5 0 24.6605 0 23.625V9.875C0 8.83946 0.839463 8 1.875 8H5V5.5C5 2.73857 7.23857 0.5 10 0.5ZM10.0001 14.875C8.96463 14.875 8.12513 15.7145 8.12513 16.75C8.12513 17.7855 8.96463 18.625 10.0001 18.625C11.0358 18.625 11.8751 17.7855 11.8751 16.75C11.8751 15.7145 11.0358 14.875 10.0001 14.875ZM10 3C8.61925 3 7.5 4.11929 7.5 5.5V8H12.5V5.5C12.5 4.11929 11.3807 3 10 3Z" fill="white"/>
</svg>
