<svg width="21" height="26" viewBox="0 0 21 26" fill="none" xmlns="http://www.w3.org/2000/svg">
<path d="M17.1917 15.4993C18.7451 15.4993 20.0042 16.7585 20.0042 18.3117V19.4431C20.0042 20.8102 19.4075 22.1092 18.3701 22.9997C16.4134 24.6796 13.613 25.5008 10.0005 25.5008C6.38858 25.5008 3.59006 24.68 1.63647 23.0004C0.600695 22.1099 0.00488281 20.8119 0.00488281 19.4459V18.3117C0.00488281 16.7585 1.26408 15.4993 2.81738 15.4993H17.1917ZM9.87362 0.508563L10.0009 0.5C10.4755 0.5 10.8677 0.852688 10.9297 1.31029L10.9384 1.4375L10.9374 2.37375L15.313 2.37439C16.8662 2.37439 18.1255 3.63359 18.1255 5.18689V10.8176C18.1255 12.3709 16.8662 13.6301 15.313 13.6301H4.68795C3.13465 13.6301 1.87545 12.3709 1.87545 10.8176V5.18689C1.87545 3.63359 3.13465 2.37439 4.68795 2.37439L9.06237 2.37375L9.06337 1.4375C9.06337 0.962875 9.416 0.570638 9.87362 0.508563ZM7.18706 6.12439C6.32461 6.12439 5.62544 6.82354 5.62544 7.68599C5.62544 8.54845 6.32461 9.2476 7.18706 9.2476C8.0495 9.2476 8.74862 8.54845 8.74862 7.68599C8.74862 6.82354 8.0495 6.12439 7.18706 6.12439ZM12.803 6.12439C11.9405 6.12439 11.2414 6.82354 11.2414 7.68599C11.2414 8.54845 11.9405 9.2476 12.803 9.2476C13.6655 9.2476 14.3646 8.54845 14.3646 7.68599C14.3646 6.82354 13.6655 6.12439 12.803 6.12439Z" fill="white"/>
</svg>
